# xmcd
#
# Track frame offsets:
#	150
#	10551
#	32254
#	93170
#	124150
#	158915
#	192085
#	215168
#
# Disc length: 3156 seconds
#
# Revision: 1
# Processed by: cddbd v1.5.2PL0 Copyright (c) Steve Scherf et al.
# Submitted via: audiograbber 1.83.01
#
DISCID=5a0c5208
DTITLE=Grateful Dead - 69-12-30 Boston Tea Party, Boston MA
DYEAR=1900
DGENRE=
TTITLE0=Cryptical Envelopment
TTITLE1=Drums
TTITLE2=The Other One
TTITLE3=Cosmic Charlie
TTITLE4=Uncle John's Band
TTITLE5=Mason's Children
TTITLE6=China Cat Sunflower
TTITLE7=I Know You Rider
EXTD=
EXTT0=
EXTT1=
EXTT2=
EXTT3=
EXTT4=
EXTT5=
EXTT6=
EXTT7=
PLAYORDER=
